<svg xmlns="http://www.w3.org/2000/svg" xmlns:xlink="http://www.w3.org/1999/xlink" width="1000" zoomAndPan="magnify" viewBox="0 0 750 757.92" height="1000" preserveAspectRatio="xMidYMid meet" version="1.0"><defs><g/><clipPath id="a814cb6214"><path d="M 0.0390625 0 L 749.960938 0 L 749.960938 749.921875 L 0.0390625 749.921875 Z M 0.0390625 0 " clip-rule="nonzero"/></clipPath><clipPath id="72772a7164"><path d="M 375 0 C 167.914062 0 0.0390625 167.875 0.0390625 374.960938 C 0.0390625 582.046875 167.914062 749.921875 375 749.921875 C 582.085938 749.921875 749.960938 582.046875 749.960938 374.960938 C 749.960938 167.875 582.085938 0 375 0 Z M 375 0 " clip-rule="nonzero"/></clipPath><clipPath id="16cfaa9cba"><path d="M 0.0390625 0 L 749.960938 0 L 749.960938 749.921875 L 0.0390625 749.921875 Z M 0.0390625 0 " clip-rule="nonzero"/></clipPath><clipPath id="c66328afaf"><path d="M 375 0 C 167.914062 0 0.0390625 167.875 0.0390625 374.960938 C 0.0390625 582.046875 167.914062 749.921875 375 749.921875 C 582.085938 749.921875 749.960938 582.046875 749.960938 374.960938 C 749.960938 167.875 582.085938 0 375 0 Z M 375 0 " clip-rule="nonzero"/></clipPath><clipPath id="1860af36fd"><rect x="0" width="750" y="0" height="750"/></clipPath></defs><g clip-path="url(#a814cb6214)"><g clip-path="url(#72772a7164)"><g transform="matrix(1, 0, 0, 1, 0, -0.000000000000009207)"><g clip-path="url(#1860af36fd)"><g clip-path="url(#16cfaa9cba)"><g clip-path="url(#c66328afaf)"><path fill="#ffffff" d="M 0.0390625 0 L 749.960938 0 L 749.960938 749.921875 L 0.0390625 749.921875 Z M 0.0390625 0 " fill-opacity="1" fill-rule="nonzero"/></g></g></g></g></g></g><g fill="#000000" fill-opacity="1"><g transform="translate(313.089306, 589.000599)"><g><path d="M -31.90625 -275.515625 C -43.269531 -289.078125 -48.953125 -302.550781 -48.953125 -315.9375 C -48.953125 -329.320312 -45.832031 -340.867188 -39.59375 -350.578125 C -33.363281 -360.296875 -23.28125 -368.546875 -9.34375 -375.328125 C 4.582031 -382.109375 20.34375 -385.5 37.9375 -385.5 L 263.421875 -385.5 C 274.785156 -385.5 287.335938 -386.597656 301.078125 -388.796875 C 314.828125 -391.003906 324.453125 -393.207031 329.953125 -395.40625 L 329.953125 -326.109375 L 324.453125 -326.65625 L 324.453125 -336.015625 C 324.453125 -344.804688 321.335938 -352.410156 315.109375 -358.828125 C 308.878906 -365.242188 301.546875 -368.640625 293.109375 -369.015625 L 188.625 -369.015625 L 188.625 -39.59375 C 188.988281 -26.394531 194.851562 -16.5 206.21875 -9.90625 C 211.71875 -6.96875 217.585938 -5.5 223.828125 -5.5 L 230.96875 -5.5 L 230.96875 0 L 110.53125 0 L 110.53125 -5.5 L 117.6875 -5.5 C 127.21875 -5.5 135.375 -8.796875 142.15625 -15.390625 C 148.9375 -21.992188 152.507812 -29.878906 152.875 -39.046875 L 152.875 -369.015625 L 37.9375 -369.015625 C 8.613281 -369.015625 -12.644531 -359.664062 -25.84375 -340.96875 C -32.8125 -331.425781 -36.296875 -321.429688 -36.296875 -310.984375 C -36.296875 -300.535156 -33.363281 -289.628906 -27.5 -278.265625 Z M -31.90625 -275.515625 "/></g></g></g><g fill="#000000" fill-opacity="1"><g transform="translate(109.161419, 495.447744)"><g><path d="M 521.34375 93.484375 C 505.945312 97.515625 492.289062 99.53125 480.375 99.53125 C 468.457031 99.53125 457.914062 98.796875 448.75 97.328125 C 439.582031 95.867188 429.773438 93.03125 419.328125 88.8125 C 408.878906 84.59375 399.070312 79.734375 389.90625 74.234375 C 380.738281 68.742188 371.570312 61.960938 362.40625 53.890625 C 345.539062 40.328125 330.234375 25.660156 316.484375 9.890625 C 302.734375 -5.867188 276.242188 -35.46875 237.015625 -78.90625 C 197.796875 -122.351562 171.769531 -151.226562 158.9375 -165.53125 C 146.101562 -179.832031 136.203125 -187.347656 129.234375 -188.078125 L 129.234375 -193.578125 C 150.492188 -193.578125 164.695312 -194.035156 171.84375 -194.953125 C 179 -195.867188 186.609375 -197.519531 194.671875 -199.90625 C 202.742188 -202.289062 209.53125 -205.5 215.03125 -209.53125 C 236.65625 -223.457031 247.46875 -246.550781 247.46875 -278.8125 C 247.46875 -305.582031 241.507812 -327.03125 229.59375 -343.15625 C 217.675781 -359.289062 200.90625 -367.539062 179.28125 -367.90625 L 111.09375 -367.90625 L 111.09375 -40.140625 C 111.09375 -30.972656 114.484375 -22.90625 121.265625 -15.9375 C 128.046875 -8.976562 136.382812 -5.5 146.28125 -5.5 L 152.875 -5.5 L 153.4375 0 L 33 0 L 33 -5.5 L 40.140625 -5.5 C 49.304688 -5.5 57.375 -8.796875 64.34375 -15.390625 C 71.3125 -21.992188 74.976562 -30.0625 75.34375 -39.59375 L 75.34375 -344.8125 C 74.976562 -354.34375 71.398438 -362.5 64.609375 -369.28125 C 57.828125 -376.0625 49.671875 -379.453125 40.140625 -379.453125 L 33 -379.453125 L 33 -384.953125 L 181.484375 -384.953125 C 213.742188 -384.953125 239.679688 -375.878906 259.296875 -357.734375 C 278.910156 -339.585938 288.71875 -315.570312 288.71875 -285.6875 C 288.71875 -255.8125 279.734375 -230.148438 261.765625 -208.703125 C 243.804688 -187.253906 221.8125 -176.53125 195.78125 -176.53125 C 195.78125 -176.53125 195.597656 -176.53125 195.234375 -176.53125 C 207.691406 -163.332031 221.804688 -147.929688 237.578125 -130.328125 C 301.003906 -60.304688 341.695312 -16.316406 359.65625 1.640625 C 377.625 19.609375 393.476562 34.367188 407.21875 45.921875 C 420.96875 57.472656 433.160156 65.992188 443.796875 71.484375 C 465.429688 83.222656 486.878906 89.09375 508.140625 89.09375 C 512.535156 89.09375 516.9375 88.722656 521.34375 87.984375 Z M 521.34375 93.484375 "/></g></g></g><g fill="#000000" fill-opacity="1"><g transform="translate(217.425476, 82.674769)"><g><path d="M 17.71875 -14.03125 L 20.28125 -11.359375 C 20.019531 -10.835938 19.632812 -10.332031 19.125 -9.84375 C 18.613281 -9.363281 18.023438 -8.953125 17.359375 -8.609375 C 15.046875 -7.410156 12.691406 -7.492188 10.296875 -8.859375 L 4.5625 -12.125 C 3.96875 -12.46875 3.441406 -12.648438 2.984375 -12.671875 C 2.523438 -12.703125 2.085938 -12.613281 1.671875 -12.40625 L 1.515625 -12.3125 L 6.21875 -3.203125 L 2.265625 -1.171875 L -9.125 -23.25 L -2.25 -26.796875 C 0.550781 -28.242188 2.96875 -28.753906 5 -28.328125 C 7.039062 -27.910156 8.585938 -26.679688 9.640625 -24.640625 C 10.265625 -23.421875 10.53125 -22.234375 10.4375 -21.078125 C 10.351562 -19.921875 9.984375 -18.84375 9.328125 -17.84375 C 8.671875 -16.851562 7.785156 -15.972656 6.671875 -15.203125 C 7.460938 -15.203125 8.316406 -14.941406 9.234375 -14.421875 L 12.328125 -12.75 C 13.128906 -12.320312 13.789062 -12.082031 14.3125 -12.03125 C 14.84375 -11.988281 15.421875 -12.128906 16.046875 -12.453125 C 16.773438 -12.828125 17.332031 -13.351562 17.71875 -14.03125 Z M -0.828125 -23.34375 L -3.46875 -21.96875 L -0.109375 -15.484375 L 2.34375 -16.765625 C 4.039062 -17.640625 5.15625 -18.539062 5.6875 -19.46875 C 6.226562 -20.40625 6.207031 -21.441406 5.625 -22.578125 C 4.507812 -24.734375 2.359375 -24.988281 -0.828125 -23.34375 Z M -0.828125 -23.34375 "/></g></g></g><g fill="#000000" fill-opacity="1"><g transform="translate(259.61107, 62.77389)"><g><path d="M 12.984375 -4.0625 C 10.609375 -3.226562 8.414062 -2.976562 6.40625 -3.3125 C 4.394531 -3.65625 2.644531 -4.546875 1.15625 -5.984375 C -0.332031 -7.429688 -1.492188 -9.382812 -2.328125 -11.84375 C -3.148438 -14.289062 -3.394531 -16.625 -3.0625 -18.84375 C -2.738281 -21.0625 -1.867188 -23 -0.453125 -24.65625 C 0.960938 -26.320312 2.890625 -27.566406 5.328125 -28.390625 C 7.492188 -29.117188 9.554688 -29.269531 11.515625 -28.84375 C 13.484375 -28.425781 15.210938 -27.503906 16.703125 -26.078125 C 18.203125 -24.648438 19.347656 -22.765625 20.140625 -20.421875 C 20.992188 -17.878906 21.242188 -15.507812 20.890625 -13.3125 C 20.535156 -11.113281 19.675781 -9.207031 18.3125 -7.59375 C 16.957031 -5.976562 15.179688 -4.800781 12.984375 -4.0625 Z M 11.5625 -7.890625 C 12.945312 -8.359375 14.054688 -9.113281 14.890625 -10.15625 C 15.734375 -11.207031 16.238281 -12.472656 16.40625 -13.953125 C 16.582031 -15.441406 16.363281 -17.109375 15.75 -18.953125 C 14.945312 -21.316406 13.710938 -23.003906 12.046875 -24.015625 C 10.378906 -25.023438 8.539062 -25.1875 6.53125 -24.5 C 5.082031 -24.019531 3.921875 -23.226562 3.046875 -22.125 C 2.179688 -21.019531 1.644531 -19.71875 1.4375 -18.21875 C 1.238281 -16.71875 1.429688 -15.109375 2.015625 -13.390625 C 2.859375 -10.890625 4.125 -9.164062 5.8125 -8.21875 C 7.5 -7.269531 9.414062 -7.160156 11.5625 -7.890625 Z M 11.5625 -7.890625 "/></g></g></g><g fill="#000000" fill-opacity="1"><g transform="translate(309.374923, 48.139512)"><g><path d="M 2.515625 -0.4375 L -1.796875 -24.90625 L 6.328125 -26.34375 C 9.429688 -26.894531 11.914062 -26.742188 13.78125 -25.890625 C 15.644531 -25.046875 16.769531 -23.53125 17.15625 -21.34375 C 17.363281 -20.175781 17.265625 -19.070312 16.859375 -18.03125 C 16.453125 -17 15.765625 -16.125 14.796875 -15.40625 C 16.015625 -15.15625 17.035156 -14.613281 17.859375 -13.78125 C 18.691406 -12.945312 19.21875 -11.898438 19.4375 -10.640625 C 19.8125 -8.492188 19.316406 -6.648438 17.953125 -5.109375 C 16.585938 -3.578125 14.53125 -2.566406 11.78125 -2.078125 Z M 7.03125 -22.6875 L 3.21875 -22.015625 L 4.390625 -15.375 L 8.140625 -16.03125 C 9.890625 -16.34375 11.140625 -16.835938 11.890625 -17.515625 C 12.648438 -18.203125 12.925781 -19.148438 12.71875 -20.359375 C 12.519531 -21.453125 11.96875 -22.191406 11.0625 -22.578125 C 10.15625 -22.960938 8.8125 -23 7.03125 -22.6875 Z M 6.25 -4.859375 L 11.03125 -5.703125 C 12.4375 -5.953125 13.5 -6.425781 14.21875 -7.125 C 14.9375 -7.820312 15.191406 -8.765625 14.984375 -9.953125 C 14.585938 -12.179688 12.835938 -13.023438 9.734375 -12.484375 L 5.046875 -11.65625 Z M 6.25 -4.859375 "/></g></g></g><g fill="#000000" fill-opacity="1"><g transform="translate(355.917639, 41.78606)"><g><path d="M 17.8125 -21.546875 L 6.28125 -21.140625 L 6.5 -14.734375 L 17.46875 -15.109375 L 17.609375 -11.203125 L 6.640625 -10.828125 L 6.859375 -4.15625 L 18.8125 -4.578125 L 18.625 -0.640625 L 2.546875 -0.09375 L 1.703125 -24.921875 L 17.6875 -25.46875 Z M 17.8125 -21.546875 "/></g></g></g><g fill="#000000" fill-opacity="1"><g transform="translate(400.522912, 41.91933)"><g><path d="M 22.515625 -1.96875 L 23.1875 1.65625 C 22.6875 1.945312 22.085938 2.15625 21.390625 2.28125 C 20.703125 2.40625 19.984375 2.429688 19.234375 2.359375 C 16.640625 2.078125 14.71875 0.707031 13.46875 -1.75 L 10.5 -7.609375 C 10.175781 -8.234375 9.828125 -8.679688 9.453125 -8.953125 C 9.085938 -9.222656 8.671875 -9.382812 8.203125 -9.4375 L 8.03125 -9.453125 L 6.953125 0.734375 L 2.53125 0.265625 L 5.15625 -24.4375 L 12.84375 -23.625 C 15.988281 -23.289062 18.296875 -22.390625 19.765625 -20.921875 C 21.234375 -19.453125 21.847656 -17.578125 21.609375 -15.296875 C 21.460938 -13.921875 21.035156 -12.773438 20.328125 -11.859375 C 19.617188 -10.941406 18.710938 -10.242188 17.609375 -9.765625 C 16.503906 -9.296875 15.28125 -9.050781 13.9375 -9.03125 C 14.59375 -8.59375 15.164062 -7.90625 15.65625 -6.96875 L 17.296875 -3.875 C 17.734375 -3.0625 18.160156 -2.492188 18.578125 -2.171875 C 18.992188 -1.847656 19.550781 -1.648438 20.25 -1.578125 C 21.0625 -1.492188 21.816406 -1.625 22.515625 -1.96875 Z M 12.140625 -19.953125 L 9.1875 -20.265625 L 8.40625 -13 L 11.171875 -12.703125 C 13.054688 -12.503906 14.484375 -12.644531 15.453125 -13.125 C 16.429688 -13.601562 16.988281 -14.484375 17.125 -15.765625 C 17.382812 -18.171875 15.722656 -19.566406 12.140625 -19.953125 Z M 12.140625 -19.953125 "/></g></g></g><g fill="#000000" fill-opacity="1"><g transform="translate(446.80151, 48.643486)"><g><path d="M 26 -19.078125 L 24.484375 -15.34375 L 17.015625 -17.21875 L 11.9375 3 L 7.53125 1.890625 L 12.609375 -18.328125 L 4.875 -20.265625 L 5.84375 -24.140625 Z M 26 -19.078125 "/></g></g></g><g fill="#000000" fill-opacity="1"><g transform="translate(490.102902, 61.435871)"><g/></g></g><g fill="#000000" fill-opacity="1"><g transform="translate(521.029374, 74.55699)"><g><path d="M 29.8125 -12.3125 L 27.453125 -9.046875 L 20.640625 -12.65625 L 10.875 5.765625 L 6.859375 3.640625 L 16.625 -14.78125 L 9.59375 -18.515625 L 11.453125 -22.046875 Z M 29.8125 -12.3125 "/></g></g></g><g fill="#000000" fill-opacity="1"><g transform="translate(559.904937, 97.052339)"><g><path d="M 20.5 9.515625 L 19.28125 13 C 18.695312 13 18.070312 12.878906 17.40625 12.640625 C 16.738281 12.398438 16.101562 12.0625 15.5 11.625 C 13.382812 10.09375 12.40625 7.953125 12.5625 5.203125 L 12.890625 -1.359375 C 12.921875 -2.054688 12.84375 -2.613281 12.65625 -3.03125 C 12.476562 -3.457031 12.203125 -3.804688 11.828125 -4.078125 L 11.6875 -4.1875 L 5.671875 4.109375 L 2.0625 1.5 L 16.65625 -18.609375 L 22.921875 -14.078125 C 25.472656 -12.222656 27.019531 -10.289062 27.5625 -8.28125 C 28.101562 -6.269531 27.703125 -4.335938 26.359375 -2.484375 C 25.554688 -1.367188 24.613281 -0.585938 23.53125 -0.140625 C 22.457031 0.296875 21.320312 0.441406 20.125 0.296875 C 18.9375 0.160156 17.757812 -0.234375 16.59375 -0.890625 C 16.9375 -0.179688 17.082031 0.703125 17.03125 1.765625 L 16.921875 5.265625 C 16.898438 6.171875 16.988281 6.867188 17.1875 7.359375 C 17.382812 7.859375 17.765625 8.3125 18.328125 8.71875 C 18.992188 9.207031 19.71875 9.472656 20.5 9.515625 Z M 20.46875 -11.234375 L 18.078125 -12.984375 L 13.78125 -7.078125 L 16.015625 -5.453125 C 17.554688 -4.335938 18.867188 -3.742188 19.953125 -3.671875 C 21.035156 -3.609375 21.953125 -4.097656 22.703125 -5.140625 C 24.128906 -7.097656 23.382812 -9.128906 20.46875 -11.234375 Z M 20.46875 -11.234375 "/></g></g></g><g fill="#000000" fill-opacity="1"><g transform="translate(596.730544, 126.172132)"><g><path d="M 1.859375 1.734375 L 18.84375 -16.40625 L 22.171875 -13.28125 L 5.1875 4.859375 Z M 1.859375 1.734375 "/></g></g></g><g fill="#000000" fill-opacity="1"><g transform="translate(621.237294, 150.637198)"><g><path d="M 31.1875 -1.171875 L 33.96875 2.21875 L 14.765625 17.984375 L 12.234375 14.90625 L 17.765625 -5.640625 L 4.390625 5.34375 L 1.609375 1.96875 L 20.8125 -13.796875 L 23.359375 -10.703125 L 17.796875 9.828125 Z M 31.1875 -1.171875 "/></g></g></g><g fill="#000000" fill-opacity="1"><g transform="translate(651.773331, 190.814762)"><g><path d="M 18.578125 6.0625 L 23.59375 14.578125 L 12.453125 21.140625 L 10.609375 18.03125 L 12.703125 16.34375 C 11.367188 16.1875 10.1875 15.679688 9.15625 14.828125 C 8.125 13.972656 7.226562 12.894531 6.46875 11.59375 C 5.257812 9.53125 4.628906 7.5 4.578125 5.5 C 4.535156 3.5 5.054688 1.625 6.140625 -0.125 C 7.234375 -1.875 8.875 -3.394531 11.0625 -4.6875 C 13.34375 -6.03125 15.613281 -6.738281 17.875 -6.8125 C 20.132812 -6.882812 22.25 -6.34375 24.21875 -5.1875 C 26.195312 -4.039062 27.863281 -2.3125 29.21875 0 C 30.34375 1.894531 30.945312 3.722656 31.03125 5.484375 C 31.125 7.242188 30.722656 8.976562 29.828125 10.6875 L 25.859375 8.96875 C 26.503906 7.851562 26.785156 6.695312 26.703125 5.5 C 26.628906 4.300781 26.265625 3.148438 25.609375 2.046875 C 24.734375 0.554688 23.644531 -0.539062 22.34375 -1.25 C 21.039062 -1.957031 19.628906 -2.265625 18.109375 -2.171875 C 16.597656 -2.078125 15.070312 -1.578125 13.53125 -0.671875 C 11.28125 0.660156 9.875 2.253906 9.3125 4.109375 C 8.75 5.972656 9.050781 7.90625 10.21875 9.90625 C 10.78125 10.84375 11.476562 11.632812 12.3125 12.28125 C 13.144531 12.925781 14.054688 13.316406 15.046875 13.453125 C 16.035156 13.597656 17.023438 13.378906 18.015625 12.796875 L 18.1875 12.6875 L 15.390625 7.9375 Z M 18.578125 6.0625 "/></g></g></g><g fill="#000000" fill-opacity="1"><g transform="translate(675.924648, 235.712136)"><g><path d="M -0.125 -0.3125 L 26.875 0.3125 L 28.296875 3.890625 L 9 22.546875 L 7.28125 18.265625 L 11.71875 14.09375 L 7.703125 4.015625 L 1.578125 3.96875 Z M 11.828125 4.0625 L 14.71875 11.296875 L 22.34375 4.125 Z M 11.828125 4.0625 "/></g></g></g><g fill="#000000" fill-opacity="1"><g transform="translate(692.200569, 281.815439)"><g><path d="M 0.609375 2.46875 L 24.75 -3.40625 L 25.828125 1.03125 L 5.5625 5.96875 L 8.171875 16.703125 L 4.21875 17.34375 Z M 0.609375 2.46875 "/></g></g></g><g fill="#000000" fill-opacity="1"><g transform="translate(700.698761, 324.041108)"><g><path d="M 0.296875 2.53125 L 24.96875 -0.4375 L 25.515625 4.09375 L 0.84375 7.0625 Z M 0.296875 2.53125 "/></g></g></g></svg>