<svg xmlns="http://www.w3.org/2000/svg" xmlns:xlink="http://www.w3.org/1999/xlink" width="1000" zoomAndPan="magnify" viewBox="0 0 750 757.92" height="1000" preserveAspectRatio="xMidYMid meet" version="1.0"><defs><g/><clipPath id="7436b07bce"><path d="M 0.183594 1 L 416 1 L 416 34 L 0.183594 34 Z M 0.183594 1 " clip-rule="nonzero"/></clipPath><clipPath id="0465aee6b0"><rect x="0" width="417" y="0" height="36"/></clipPath></defs><g fill="#ffffff" fill-opacity="1"><g transform="translate(313.089306, 589.000481)"><g><path d="M -31.90625 -275.515625 C -43.269531 -289.078125 -48.953125 -302.550781 -48.953125 -315.9375 C -48.953125 -329.320312 -45.832031 -340.867188 -39.59375 -350.578125 C -33.363281 -360.296875 -23.28125 -368.546875 -9.34375 -375.328125 C 4.582031 -382.109375 20.34375 -385.5 37.9375 -385.5 L 263.421875 -385.5 C 274.785156 -385.5 287.335938 -386.597656 301.078125 -388.796875 C 314.828125 -391.003906 324.453125 -393.207031 329.953125 -395.40625 L 329.953125 -326.109375 L 324.453125 -326.65625 L 324.453125 -336.015625 C 324.453125 -344.804688 321.335938 -352.410156 315.109375 -358.828125 C 308.878906 -365.242188 301.546875 -368.640625 293.109375 -369.015625 L 188.625 -369.015625 L 188.625 -39.59375 C 188.988281 -26.394531 194.851562 -16.5 206.21875 -9.90625 C 211.71875 -6.96875 217.585938 -5.5 223.828125 -5.5 L 230.96875 -5.5 L 230.96875 0 L 110.53125 0 L 110.53125 -5.5 L 117.6875 -5.5 C 127.21875 -5.5 135.375 -8.796875 142.15625 -15.390625 C 148.9375 -21.992188 152.507812 -29.878906 152.875 -39.046875 L 152.875 -369.015625 L 37.9375 -369.015625 C 8.613281 -369.015625 -12.644531 -359.664062 -25.84375 -340.96875 C -32.8125 -331.425781 -36.296875 -321.429688 -36.296875 -310.984375 C -36.296875 -300.535156 -33.363281 -289.628906 -27.5 -278.265625 Z M -31.90625 -275.515625 "/></g></g></g><g fill="#ffffff" fill-opacity="1"><g transform="translate(109.161419, 495.447744)"><g><path d="M 521.34375 93.484375 C 505.945312 97.515625 492.289062 99.53125 480.375 99.53125 C 468.457031 99.53125 457.914062 98.796875 448.75 97.328125 C 439.582031 95.867188 429.773438 93.03125 419.328125 88.8125 C 408.878906 84.59375 399.070312 79.734375 389.90625 74.234375 C 380.738281 68.742188 371.570312 61.960938 362.40625 53.890625 C 345.539062 40.328125 330.234375 25.660156 316.484375 9.890625 C 302.734375 -5.867188 276.242188 -35.46875 237.015625 -78.90625 C 197.796875 -122.351562 171.769531 -151.226562 158.9375 -165.53125 C 146.101562 -179.832031 136.203125 -187.347656 129.234375 -188.078125 L 129.234375 -193.578125 C 150.492188 -193.578125 164.695312 -194.035156 171.84375 -194.953125 C 179 -195.867188 186.609375 -197.519531 194.671875 -199.90625 C 202.742188 -202.289062 209.53125 -205.5 215.03125 -209.53125 C 236.65625 -223.457031 247.46875 -246.550781 247.46875 -278.8125 C 247.46875 -305.582031 241.507812 -327.03125 229.59375 -343.15625 C 217.675781 -359.289062 200.90625 -367.539062 179.28125 -367.90625 L 111.09375 -367.90625 L 111.09375 -40.140625 C 111.09375 -30.972656 114.484375 -22.90625 121.265625 -15.9375 C 128.046875 -8.976562 136.382812 -5.5 146.28125 -5.5 L 152.875 -5.5 L 153.4375 0 L 33 0 L 33 -5.5 L 40.140625 -5.5 C 49.304688 -5.5 57.375 -8.796875 64.34375 -15.390625 C 71.3125 -21.992188 74.976562 -30.0625 75.34375 -39.59375 L 75.34375 -344.8125 C 74.976562 -354.34375 71.398438 -362.5 64.609375 -369.28125 C 57.828125 -376.0625 49.671875 -379.453125 40.140625 -379.453125 L 33 -379.453125 L 33 -384.953125 L 181.484375 -384.953125 C 213.742188 -384.953125 239.679688 -375.878906 259.296875 -357.734375 C 278.910156 -339.585938 288.71875 -315.570312 288.71875 -285.6875 C 288.71875 -255.8125 279.734375 -230.148438 261.765625 -208.703125 C 243.804688 -187.253906 221.8125 -176.53125 195.78125 -176.53125 C 195.78125 -176.53125 195.597656 -176.53125 195.234375 -176.53125 C 207.691406 -163.332031 221.804688 -147.929688 237.578125 -130.328125 C 301.003906 -60.304688 341.695312 -16.316406 359.65625 1.640625 C 377.625 19.609375 393.476562 34.367188 407.21875 45.921875 C 420.96875 57.472656 433.160156 65.992188 443.796875 71.484375 C 465.429688 83.222656 486.878906 89.09375 508.140625 89.09375 C 512.535156 89.09375 516.9375 88.722656 521.34375 87.984375 Z M 521.34375 93.484375 "/></g></g></g><g transform="matrix(1, 0, 0, 1, 152, 357)"><g clip-path="url(#0465aee6b0)"><g clip-path="url(#7436b07bce)"><path fill="#000000" d="M 8.996094 1.957031 L 407.621094 1.957031 C 409.742188 1.957031 411.777344 2.796875 413.28125 4.300781 C 414.78125 5.800781 415.625 7.835938 415.625 9.957031 L 415.625 25.964844 C 415.625 28.085938 414.78125 30.121094 413.28125 31.621094 C 411.777344 33.121094 409.742188 33.964844 407.621094 33.964844 L 8.996094 33.964844 C 4.574219 33.964844 0.992188 30.382812 0.992188 25.964844 L 0.992188 9.957031 C 0.992188 5.539062 4.574219 1.957031 8.996094 1.957031 Z M 8.996094 1.957031 " fill-opacity="1" fill-rule="nonzero"/></g><g fill="#ffffff" fill-opacity="1"><g transform="translate(16.626669, 23.959822)"><g><path d="M 12.6875 -2.484375 L 13.296875 -0.453125 C 13.023438 -0.253906 12.695312 -0.0976562 12.3125 0.015625 C 11.925781 0.128906 11.519531 0.1875 11.09375 0.1875 C 9.59375 0.1875 8.414062 -0.472656 7.5625 -1.796875 L 5.5 -4.96875 C 5.289062 -5.300781 5.070312 -5.53125 4.84375 -5.65625 C 4.613281 -5.789062 4.367188 -5.859375 4.109375 -5.859375 L 4 -5.859375 L 4 0 L 1.46875 0 L 1.46875 -14.21875 L 5.890625 -14.21875 C 7.691406 -14.21875 9.054688 -13.84375 9.984375 -13.09375 C 10.910156 -12.34375 11.375 -11.316406 11.375 -10.015625 C 11.375 -9.222656 11.195312 -8.539062 10.84375 -7.96875 C 10.5 -7.40625 10.023438 -6.957031 9.421875 -6.625 C 8.828125 -6.289062 8.148438 -6.078125 7.390625 -5.984375 C 7.785156 -5.773438 8.148438 -5.414062 8.484375 -4.90625 L 9.609375 -3.25 C 9.898438 -2.820312 10.175781 -2.523438 10.4375 -2.359375 C 10.695312 -2.203125 11.023438 -2.125 11.421875 -2.125 C 11.890625 -2.125 12.3125 -2.242188 12.6875 -2.484375 Z M 5.703125 -12.09375 L 4 -12.09375 L 4 -7.90625 L 5.578125 -7.90625 C 6.671875 -7.90625 7.476562 -8.070312 8 -8.40625 C 8.519531 -8.738281 8.78125 -9.273438 8.78125 -10.015625 C 8.78125 -11.398438 7.753906 -12.09375 5.703125 -12.09375 Z M 5.703125 -12.09375 "/></g></g></g><g fill="#ffffff" fill-opacity="1"><g transform="translate(44.418664, 23.959822)"><g><path d="M 7.78125 0.1875 C 6.34375 0.195312 5.109375 -0.0703125 4.078125 -0.625 C 3.054688 -1.1875 2.269531 -1.992188 1.71875 -3.046875 C 1.175781 -4.097656 0.90625 -5.363281 0.90625 -6.84375 C 0.90625 -8.320312 1.195312 -9.628906 1.78125 -10.765625 C 2.363281 -11.910156 3.191406 -12.800781 4.265625 -13.4375 C 5.347656 -14.082031 6.625 -14.40625 8.09375 -14.40625 C 9.394531 -14.40625 10.539062 -14.113281 11.53125 -13.53125 C 12.519531 -12.945312 13.285156 -12.128906 13.828125 -11.078125 C 14.378906 -10.023438 14.65625 -8.796875 14.65625 -7.390625 C 14.65625 -5.847656 14.359375 -4.515625 13.765625 -3.390625 C 13.171875 -2.265625 12.351562 -1.382812 11.3125 -0.75 C 10.28125 -0.125 9.101562 0.1875 7.78125 0.1875 Z M 7.703125 -2.15625 C 8.546875 -2.15625 9.289062 -2.363281 9.9375 -2.78125 C 10.582031 -3.195312 11.085938 -3.789062 11.453125 -4.5625 C 11.828125 -5.332031 12.015625 -6.273438 12.015625 -7.390625 C 12.015625 -8.816406 11.648438 -9.957031 10.921875 -10.8125 C 10.203125 -11.664062 9.238281 -12.09375 8.03125 -12.09375 C 7.15625 -12.09375 6.378906 -11.867188 5.703125 -11.421875 C 5.035156 -10.984375 4.507812 -10.378906 4.125 -9.609375 C 3.738281 -8.835938 3.546875 -7.929688 3.546875 -6.890625 C 3.546875 -5.378906 3.914062 -4.210938 4.65625 -3.390625 C 5.394531 -2.566406 6.410156 -2.15625 7.703125 -2.15625 Z M 7.703125 -2.15625 "/></g></g></g><g fill="#ffffff" fill-opacity="1"><g transform="translate(75.2127, 23.959822)"><g><path d="M 1.46875 0 L 1.46875 -14.21875 L 6.1875 -14.21875 C 7.988281 -14.21875 9.375 -13.882812 10.34375 -13.21875 C 11.3125 -12.5625 11.796875 -11.597656 11.796875 -10.328125 C 11.796875 -9.648438 11.625 -9.035156 11.28125 -8.484375 C 10.945312 -7.941406 10.476562 -7.515625 9.875 -7.203125 C 10.519531 -6.953125 11.035156 -6.546875 11.421875 -5.984375 C 11.816406 -5.429688 12.015625 -4.789062 12.015625 -4.0625 C 12.015625 -2.820312 11.550781 -1.832031 10.625 -1.09375 C 9.707031 -0.363281 8.445312 0 6.84375 0 Z M 6.21875 -12.09375 L 4 -12.09375 L 4 -8.21875 L 6.1875 -8.21875 C 7.195312 -8.21875 7.945312 -8.375 8.4375 -8.6875 C 8.9375 -9.007812 9.1875 -9.515625 9.1875 -10.203125 C 9.1875 -10.847656 8.945312 -11.320312 8.46875 -11.625 C 8 -11.9375 7.25 -12.09375 6.21875 -12.09375 Z M 4 -2.125 L 6.78125 -2.125 C 7.59375 -2.125 8.234375 -2.28125 8.703125 -2.59375 C 9.179688 -2.914062 9.421875 -3.425781 9.421875 -4.125 C 9.421875 -5.414062 8.519531 -6.0625 6.71875 -6.0625 L 4 -6.0625 Z M 4 -2.125 "/></g></g></g><g fill="#ffffff" fill-opacity="1"><g transform="translate(103.124777, 23.959822)"><g><path d="M 10.609375 -11.96875 L 4 -11.96875 L 4 -8.3125 L 10.28125 -8.3125 L 10.28125 -6.0625 L 4 -6.0625 L 4 -2.234375 L 10.84375 -2.234375 L 10.671875 0 L 1.46875 0 L 1.46875 -14.21875 L 10.609375 -14.21875 Z M 10.609375 -11.96875 "/></g></g></g><g fill="#ffffff" fill-opacity="1"><g transform="translate(129.675929, 23.959822)"><g><path d="M 12.6875 -2.484375 L 13.296875 -0.453125 C 13.023438 -0.253906 12.695312 -0.0976562 12.3125 0.015625 C 11.925781 0.128906 11.519531 0.1875 11.09375 0.1875 C 9.59375 0.1875 8.414062 -0.472656 7.5625 -1.796875 L 5.5 -4.96875 C 5.289062 -5.300781 5.070312 -5.53125 4.84375 -5.65625 C 4.613281 -5.789062 4.367188 -5.859375 4.109375 -5.859375 L 4 -5.859375 L 4 0 L 1.46875 0 L 1.46875 -14.21875 L 5.890625 -14.21875 C 7.691406 -14.21875 9.054688 -13.84375 9.984375 -13.09375 C 10.910156 -12.34375 11.375 -11.316406 11.375 -10.015625 C 11.375 -9.222656 11.195312 -8.539062 10.84375 -7.96875 C 10.5 -7.40625 10.023438 -6.957031 9.421875 -6.625 C 8.828125 -6.289062 8.148438 -6.078125 7.390625 -5.984375 C 7.785156 -5.773438 8.148438 -5.414062 8.484375 -4.90625 L 9.609375 -3.25 C 9.898438 -2.820312 10.175781 -2.523438 10.4375 -2.359375 C 10.695312 -2.203125 11.023438 -2.125 11.421875 -2.125 C 11.890625 -2.125 12.3125 -2.242188 12.6875 -2.484375 Z M 5.703125 -12.09375 L 4 -12.09375 L 4 -7.90625 L 5.578125 -7.90625 C 6.671875 -7.90625 7.476562 -8.070312 8 -8.40625 C 8.519531 -8.738281 8.78125 -9.273438 8.78125 -10.015625 C 8.78125 -11.398438 7.753906 -12.09375 5.703125 -12.09375 Z M 5.703125 -12.09375 "/></g></g></g><g fill="#ffffff" fill-opacity="1"><g transform="translate(157.467923, 23.959822)"><g><path d="M 11.765625 -14.21875 L 11.453125 -11.921875 L 7.046875 -11.921875 L 7.046875 0 L 4.4375 0 L 4.4375 -11.921875 L -0.125 -11.921875 L -0.125 -14.21875 Z M 11.765625 -14.21875 "/></g></g></g><g fill="#ffffff" fill-opacity="1"><g transform="translate(184.199185, 23.959822)"><g/></g></g><g fill="#ffffff" fill-opacity="1"><g transform="translate(204.305957, 23.959822)"><g><path d="M 11.765625 -14.21875 L 11.453125 -11.921875 L 7.046875 -11.921875 L 7.046875 0 L 4.4375 0 L 4.4375 -11.921875 L -0.125 -11.921875 L -0.125 -14.21875 Z M 11.765625 -14.21875 "/></g></g></g><g fill="#ffffff" fill-opacity="1"><g transform="translate(231.037218, 23.959822)"><g><path d="M 12.6875 -2.484375 L 13.296875 -0.453125 C 13.023438 -0.253906 12.695312 -0.0976562 12.3125 0.015625 C 11.925781 0.128906 11.519531 0.1875 11.09375 0.1875 C 9.59375 0.1875 8.414062 -0.472656 7.5625 -1.796875 L 5.5 -4.96875 C 5.289062 -5.300781 5.070312 -5.53125 4.84375 -5.65625 C 4.613281 -5.789062 4.367188 -5.859375 4.109375 -5.859375 L 4 -5.859375 L 4 0 L 1.46875 0 L 1.46875 -14.21875 L 5.890625 -14.21875 C 7.691406 -14.21875 9.054688 -13.84375 9.984375 -13.09375 C 10.910156 -12.34375 11.375 -11.316406 11.375 -10.015625 C 11.375 -9.222656 11.195312 -8.539062 10.84375 -7.96875 C 10.5 -7.40625 10.023438 -6.957031 9.421875 -6.625 C 8.828125 -6.289062 8.148438 -6.078125 7.390625 -5.984375 C 7.785156 -5.773438 8.148438 -5.414062 8.484375 -4.90625 L 9.609375 -3.25 C 9.898438 -2.820312 10.175781 -2.523438 10.4375 -2.359375 C 10.695312 -2.203125 11.023438 -2.125 11.421875 -2.125 C 11.890625 -2.125 12.3125 -2.242188 12.6875 -2.484375 Z M 5.703125 -12.09375 L 4 -12.09375 L 4 -7.90625 L 5.578125 -7.90625 C 6.671875 -7.90625 7.476562 -8.070312 8 -8.40625 C 8.519531 -8.738281 8.78125 -9.273438 8.78125 -10.015625 C 8.78125 -11.398438 7.753906 -12.09375 5.703125 -12.09375 Z M 5.703125 -12.09375 "/></g></g></g><g fill="#ffffff" fill-opacity="1"><g transform="translate(258.829213, 23.959822)"><g><path d="M 1.46875 0 L 1.46875 -14.21875 L 4.0625 -14.21875 L 4.0625 0 Z M 1.46875 0 "/></g></g></g><g fill="#ffffff" fill-opacity="1"><g transform="translate(279.596422, 23.959822)"><g><path d="M 10.8125 -14.21875 L 13.3125 -14.21875 L 13.3125 0 L 11.03125 0 L 3.96875 -9.90625 L 3.96875 0 L 1.46875 0 L 1.46875 -14.21875 L 3.75 -14.21875 L 10.8125 -4.296875 Z M 10.8125 -14.21875 "/></g></g></g><g fill="#ffffff" fill-opacity="1"><g transform="translate(309.609915, 23.959822)"><g><path d="M 8.390625 -7.40625 L 14.03125 -7.40625 L 14.03125 0 L 11.96875 0 L 11.75 -1.515625 C 11.28125 -0.898438 10.6875 -0.460938 9.96875 -0.203125 C 9.25 0.0546875 8.457031 0.1875 7.59375 0.1875 C 6.226562 0.1875 5.046875 -0.09375 4.046875 -0.65625 C 3.046875 -1.21875 2.269531 -2.019531 1.71875 -3.0625 C 1.175781 -4.113281 0.90625 -5.367188 0.90625 -6.828125 C 0.90625 -8.335938 1.210938 -9.65625 1.828125 -10.78125 C 2.453125 -11.914062 3.332031 -12.800781 4.46875 -13.4375 C 5.613281 -14.082031 6.953125 -14.40625 8.484375 -14.40625 C 9.742188 -14.40625 10.816406 -14.171875 11.703125 -13.703125 C 12.597656 -13.242188 13.34375 -12.546875 13.9375 -11.609375 L 11.921875 -10.140625 C 11.566406 -10.785156 11.082031 -11.257812 10.46875 -11.5625 C 9.851562 -11.875 9.179688 -12.03125 8.453125 -12.03125 C 7.460938 -12.03125 6.601562 -11.8125 5.875 -11.375 C 5.144531 -10.945312 4.582031 -10.34375 4.1875 -9.5625 C 3.800781 -8.789062 3.609375 -7.890625 3.609375 -6.859375 C 3.609375 -5.367188 3.984375 -4.210938 4.734375 -3.390625 C 5.484375 -2.566406 6.519531 -2.15625 7.84375 -2.15625 C 8.46875 -2.15625 9.0625 -2.269531 9.625 -2.5 C 10.1875 -2.726562 10.644531 -3.066406 11 -3.515625 C 11.351562 -3.960938 11.53125 -4.507812 11.53125 -5.15625 L 11.53125 -5.28125 L 8.390625 -5.28125 Z M 8.390625 -7.40625 "/></g></g></g><g fill="#ffffff" fill-opacity="1"><g transform="translate(339.903599, 23.959822)"><g><path d="M -0.203125 0 L 5.859375 -14.21875 L 8.0625 -14.21875 L 13.890625 0 L 11.25 0 L 9.96875 -3.25 L 3.765625 -3.25 L 2.4375 0 Z M 4.65625 -5.421875 L 9.125 -5.421875 L 6.921875 -11.015625 Z M 4.65625 -5.421875 "/></g></g></g><g fill="#ffffff" fill-opacity="1"><g transform="translate(368.916412, 23.959822)"><g><path d="M 1.46875 0 L 1.46875 -14.21875 L 4.0625 -14.21875 L 4.0625 -2.28125 L 10.390625 -2.28125 L 10.203125 0 Z M 1.46875 0 "/></g></g></g><g fill="#ffffff" fill-opacity="1"><g transform="translate(394.446859, 23.959822)"><g><path d="M 1.46875 0 L 1.46875 -14.21875 L 4.0625 -14.21875 L 4.0625 0 Z M 1.46875 0 "/></g></g></g></g></g></svg>